<svg width="32" height="32" viewBox="0 0 32 32" fill="none" xmlns="http://www.w3.org/2000/svg">
<path d="M25.306 4.06805C27.1854 3.69217 29.0141 4.9113 29.39 6.79071L30.7777 13.7311C31.1535 15.6105 29.9344 17.4392 28.055 17.8151C26.1757 18.1908 24.3479 16.9717 23.972 15.0925L22.5833 8.15203C22.2074 6.27263 23.4266 4.44393 25.306 4.06805Z" fill="white"/>
<path d="M16.283 6.15026C18.1625 5.77438 19.9912 6.99351 20.367 8.87292L21.7547 15.8134C22.1306 17.6928 20.9115 19.5215 19.0321 19.8973C17.1528 20.273 15.3249 19.054 14.9491 17.1747L13.5604 10.2342C13.1845 8.35484 14.4036 6.52615 16.283 6.15026Z" fill="white"/>
<path d="M5.87622 15.62C6.40107 15.1612 7.12521 14.9938 7.80298 15.1815C8.5235 15.3813 9.08122 15.9522 9.2649 16.6767L9.26587 16.6815C9.26839 16.6909 9.27444 16.7102 9.28247 16.7382C9.29866 16.7945 9.3262 16.8868 9.36646 17.0087C9.44739 17.2537 9.57812 17.6159 9.76978 18.0507C10.1567 18.9284 10.7726 20.0605 11.6868 21.121C13.4392 23.1538 16.3736 25.0586 21.4602 24.161C22.5927 23.9612 23.6725 24.717 23.8723 25.8495C24.0722 26.982 23.3163 28.0618 22.1838 28.2616C15.4716 29.4461 11.1179 26.8398 8.53247 23.8407C7.66085 22.8296 7.00306 21.7886 6.51294 20.8661L4.55493 22.8251C3.74178 23.6382 2.42278 23.6382 1.60962 22.8251C0.796752 22.012 0.796833 20.6939 1.60962 19.8808L5.77466 15.7157L5.87622 15.62Z" fill="white"/>
</svg>
