<svg width="32" height="32" viewBox="0 0 32 32" fill="none" xmlns="http://www.w3.org/2000/svg">
<path d="M17.939 20.5013C18.9522 20.4694 19.8449 21.2093 19.9819 22.2357C20.1277 23.3305 19.358 24.3368 18.2632 24.4828C18.2626 24.483 18.2613 24.4836 18.2603 24.4838C18.2572 24.4842 18.2518 24.4849 18.2456 24.4857C18.2325 24.4875 18.2121 24.4899 18.186 24.4935C18.1327 24.5009 18.0523 24.5121 17.9487 24.5267C17.7407 24.5562 17.4364 24.6001 17.0571 24.6576C16.2973 24.7727 15.2372 24.9418 14.0405 25.1566C11.6191 25.5912 8.73777 26.196 6.63232 26.8978C5.58474 27.2467 4.45147 26.6806 4.10205 25.6332C3.75283 24.5856 4.31933 23.4525 5.3667 23.1029C7.76085 22.3048 10.8802 21.6595 13.3335 21.2191C14.5737 20.9965 15.6706 20.8217 16.4575 20.7025C16.851 20.6429 17.1686 20.5969 17.3882 20.5658C17.4976 20.5503 17.5834 20.5387 17.6421 20.5306C17.6709 20.5267 17.6939 20.523 17.7095 20.5209C17.717 20.5199 17.7238 20.5195 17.728 20.5189C17.7298 20.5187 17.7318 20.5182 17.7329 20.5179H17.7349L17.939 20.5013ZM26.8335 10.7513C27.5227 9.55608 29.0506 9.1452 30.2466 9.83337C31.4429 10.5222 31.8551 12.051 31.1665 13.2474L28.9995 12.0004C31.0326 13.171 31.1573 13.2441 31.1646 13.2494L31.1616 13.2552C31.1602 13.2578 31.1584 13.2612 31.1567 13.264C31.1532 13.2701 31.1485 13.2771 31.144 13.2845C31.1351 13.2997 31.1245 13.3185 31.1118 13.3392C31.0861 13.3812 31.0521 13.4349 31.0112 13.4974C30.9294 13.6225 30.8161 13.7878 30.6714 13.9789C30.3839 14.3583 29.9579 14.861 29.3911 15.3666C28.2656 16.3703 26.4475 17.5004 23.9995 17.5004C21.5514 17.5002 19.7333 16.3703 18.6079 15.3666C18.0409 14.8609 17.6152 14.3584 17.3276 13.9789C17.1828 13.7877 17.0696 13.6226 16.9878 13.4974C16.9468 13.4348 16.9129 13.3812 16.8872 13.3392C16.8744 13.3184 16.864 13.2998 16.855 13.2845C16.8505 13.2769 16.8459 13.2702 16.8423 13.264C16.8405 13.261 16.8389 13.2579 16.8374 13.2552L16.8345 13.2494C16.8408 13.2446 16.9589 13.1754 18.9995 12.0004L16.8325 13.2474C16.1441 12.0511 16.5565 10.5224 17.7524 9.83337C18.9484 9.14509 20.4763 9.55604 21.1655 10.7513L21.1646 10.7494L21.1587 10.7406C21.157 10.7376 21.1559 10.7347 21.1548 10.7328L21.1724 10.7611C21.1978 10.8 21.2451 10.8697 21.313 10.9594C21.4515 11.1422 21.6624 11.39 21.936 11.6342C22.4923 12.1303 23.1754 12.5002 23.9995 12.5004C24.8236 12.5004 25.5067 12.1302 26.063 11.6342C26.3365 11.3902 26.5475 11.1422 26.686 10.9594C26.7537 10.87 26.8012 10.8 26.8267 10.7611L26.8442 10.7328C26.8432 10.7347 26.842 10.7378 26.8403 10.7406L26.8345 10.7494L26.8335 10.7513ZM10.8335 6.75134C11.5227 5.55608 13.0506 5.1452 14.2466 5.83337C15.4429 6.52224 15.8551 8.05098 15.1665 9.24744L12.9995 8.00037C15.0326 9.17105 15.1573 9.24412 15.1646 9.24939L15.1616 9.25525C15.1602 9.25782 15.1584 9.26115 15.1567 9.26404C15.1532 9.27007 15.1485 9.27709 15.144 9.28455C15.1351 9.2997 15.1245 9.31853 15.1118 9.33923C15.0861 9.38115 15.0521 9.43493 15.0112 9.49744C14.9294 9.62253 14.8161 9.78784 14.6714 9.97888C14.3839 10.3583 13.9579 10.861 13.3911 11.3666C12.2656 12.3703 10.4475 13.5004 7.99951 13.5004C5.55142 13.5002 3.73332 12.3703 2.60791 11.3666C2.0409 10.8609 1.61516 10.3584 1.32764 9.97888C1.18276 9.78765 1.06961 9.62258 0.987793 9.49744C0.946814 9.43475 0.912903 9.38121 0.887207 9.33923C0.874432 9.31836 0.864013 9.29977 0.85498 9.28455C0.850469 9.27694 0.845874 9.27016 0.842285 9.26404C0.840522 9.26102 0.838936 9.2579 0.837402 9.25525L0.834473 9.24939C0.840831 9.24462 0.958883 9.17537 2.99951 8.00037L0.83252 9.24744C0.144063 8.05114 0.556453 6.52238 1.75244 5.83337C2.94844 5.14509 4.47628 5.55604 5.16553 6.75134L5.16455 6.74939L5.15869 6.7406C5.15696 6.73764 5.15587 6.73466 5.15479 6.73279L5.17236 6.76111C5.19777 6.79997 5.24506 6.86968 5.31299 6.95935C5.45155 7.14223 5.66239 7.39004 5.93604 7.63416C6.49233 8.1303 7.17542 8.50024 7.99951 8.50037C8.82357 8.50037 9.50668 8.13019 10.063 7.63416C10.3365 7.3902 10.5475 7.1422 10.686 6.95935C10.7537 6.86997 10.8012 6.80004 10.8267 6.76111L10.8442 6.73279C10.8432 6.73465 10.842 6.73782 10.8403 6.7406L10.8345 6.74939L10.8335 6.75134Z" fill="white"/>
</svg>
